<?xml version="1.0" standalone="no"?>
<!DOCTYPE svg PUBLIC "-//W3C//DTD SVG 20010904//EN"
 "http://www.w3.org/TR/2001/REC-SVG-20010904/DTD/svg10.dtd">
<svg version="1.0" xmlns="http://www.w3.org/2000/svg"
 width="200.000000pt" height="200.000000pt" viewBox="0 0 200.000000 200.000000"
 preserveAspectRatio="xMidYMid meet">
<metadata>
Created by potrace 1.14, written by Peter Selinger 2001-2017
</metadata>
<g transform="translate(0.000000,200.000000) scale(0.100000,-0.100000)"
fill="#000000" stroke="none">
<path d="M4 1811 c-2 -2 -4 -115 -4 -251 l0 -247 1000 0 1000 -1 0 249 c0 137
-3 250 -7 250 -23 4 -1985 3 -1989 0z m1871 -248 c0 -77 -3 -123 -10 -124 -73
-4 -1724 -1 -1731 4 -7 4 -12 209 -5 237 0 3 394 6 873 5 l873 0 0 -122z"/>
<path d="M262 1622 c-7 -2 -12 -27 -12 -63 l0 -59 63 0 62 0 -1 53 c-1 28 -2
57 -3 63 -1 9 -85 14 -109 6z"/>
<path d="M444 1615 c-5 -13 -7 -49 -5 -87 1 -27 3 -28 60 -28 l59 0 3 33 c2
17 2 46 -1 62 -5 29 -7 30 -58 31 -31 0 -56 -4 -58 -11z"/>
<path d="M629 1626 c-1 -1 -2 -29 -3 -63 l-2 -63 64 0 63 0 -3 62 -3 62 -57 1
c-32 1 -58 1 -59 1z"/>
<path d="M1882 1180 c-4 -3 -7 -194 -7 -425 1 -231 0 -425 -2 -430 -2 -7 -281
-11 -876 -10 l-872 0 0 405 0 405 -60 0 -60 0 -3 -464 c-1 -273 2 -467 7 -470
7 -5 1838 -7 1959 -2 l32 1 0 498 0 497 -55 0 c-31 1 -59 -2 -63 -5z"/>
<path d="M254 1121 c-2 -2 -4 -143 -4 -313 l0 -308 250 0 250 0 -2 312 -3 313
-243 0 c-134 0 -245 -2 -248 -4z m371 -308 c0 -101 -2 -184 -5 -184 -13 -3
-226 -5 -235 -2 -7 2 -10 68 -9 186 1 100 2 183 3 185 0 1 56 1 124 0 l122 -3
0 -182z"/>
<path d="M876 1120 c-1 -3 -2 -30 -2 -60 l1 -55 216 -3 217 -2 3 44 c7 86 21
81 -219 81 -118 0 -215 -2 -216 -5z"/>
<path d="M876 820 c1 -30 2 -58 3 -62 0 -5 197 -8 436 -8 l435 0 0 63 0 62
-438 0 -438 0 2 -55z"/>
<path d="M876 620 c-1 -3 -2 -30 -2 -60 l1 -55 438 -3 438 -2 -3 62 -3 63
-433 0 c-239 0 -435 -2 -436 -5z"/>
</g>
</svg>
